<?xml version="1.0" standalone="no"?>
<!DOCTYPE svg PUBLIC "-//W3C//DTD SVG 20010904//EN"
 "http://www.w3.org/TR/2001/REC-SVG-20010904/DTD/svg10.dtd">
<svg version="1.0" xmlns="http://www.w3.org/2000/svg"
 width="1280.000000pt" height="830.000000pt" viewBox="0 0 1280.000000 830.000000"
 preserveAspectRatio="xMidYMid meet">
<g transform="translate(0.000000,830.000000) scale(0.100000,-0.100000)"
fill="#000000" stroke="none">
<path d="M3310 8276 c-201 -72 -440 -235 -870 -593 -279 -232 -405 -332 -494
-393 -69 -46 -82 -50 -227 -80 -408 -84 -740 -246 -986 -484 -150 -143 -246
-276 -346 -476 -74 -149 -86 -168 -119 -183 -20 -10 -77 -49 -125 -86 -48 -37
-97 -73 -108 -79 -20 -10 -21 -22 -25 -174 -3 -90 -5 -214 -5 -276 0 -111 1
-114 27 -137 30 -26 105 -45 173 -45 25 0 45 -2 45 -5 0 -2 -11 -20 -24 -40
-14 -20 -27 -58 -31 -88 -12 -95 27 -322 82 -482 221 -637 861 -1179 1533
-1296 134 -23 411 -28 550 -9 408 55 746 215 1090 516 206 181 665 639 715
714 57 86 94 119 138 127 l37 6 -26 -59 c-121 -275 -286 -546 -603 -994 -275
-389 -411 -603 -716 -1127 l-158 -272 -30 16 c-111 57 -274 78 -387 49 -187
-48 -332 -171 -426 -361 -64 -131 -79 -196 -78 -350 0 -115 3 -139 26 -203 32
-88 83 -158 157 -213 75 -55 131 -82 398 -195 262 -110 465 -206 573 -269 168
-99 225 -163 341 -379 80 -147 152 -229 246 -279 111 -58 177 -71 343 -71 244
1 368 41 621 199 289 181 389 215 639 222 170 5 260 -2 590 -48 111 -16 206
-22 335 -22 163 0 189 2 276 25 342 92 617 341 690 626 47 185 -2 346 -150
492 -67 67 -88 81 -186 124 -194 84 -239 119 -291 231 -25 54 -39 106 -59 226
-32 201 -42 231 -109 343 -56 92 -65 116 -177 461 -24 76 -101 260 -184 440
-198 432 -255 588 -301 830 -27 142 -23 488 6 470 13 -8 93 -132 132 -205 42
-79 130 -290 191 -460 108 -298 152 -399 234 -539 47 -80 78 -117 186 -221 71
-69 146 -151 166 -182 33 -52 56 -70 222 -179 279 -183 353 -225 451 -253 198
-57 383 -85 608 -93 950 -31 1758 518 2002 1362 16 55 32 103 36 107 4 3 60
22 126 42 65 19 119 36 120 38 89 133 317 419 502 629 642 728 718 824 964
1214 291 461 442 655 511 655 14 0 18 -14 23 -77 11 -127 34 -303 76 -558 46
-282 57 -368 65 -530 13 -247 44 -387 101 -462 75 -99 245 -96 315 5 100 144
91 419 -32 988 -56 260 -64 307 -104 632 -36 280 -65 428 -105 528 -16 39 -30
56 -60 73 -55 31 -159 51 -264 51 -107 0 -105 1 -274 -164 -141 -138 -244
-260 -449 -536 -186 -250 -281 -389 -350 -514 -42 -76 -55 -91 -84 -101 -37
-12 -30 -3 -229 -305 -201 -306 -544 -741 -742 -941 l-112 -114 -7 120 c-9
147 -23 240 -55 368 -203 820 -1034 1417 -1974 1418 -242 0 -403 -22 -616 -87
-206 -62 -364 -143 -493 -253 -91 -77 -196 -213 -376 -486 -158 -238 -271
-392 -322 -438 -20 -17 -22 -16 -85 35 -35 29 -119 103 -187 163 -204 183
-323 260 -471 307 -67 21 -93 23 -250 22 -156 0 -185 -3 -273 -27 -136 -36
-302 -104 -504 -206 l-173 -87 -6 35 c-41 241 -89 393 -184 586 -199 406 -476
738 -790 946 -122 81 -243 135 -377 168 -113 28 -194 59 -207 79 -3 5 43 40
102 79 59 39 192 139 296 223 209 169 319 244 430 296 41 19 77 34 80 34 29 0
266 -632 362 -965 87 -304 155 -414 287 -463 60 -23 81 -17 136 39 46 46 62
93 62 180 1 88 -15 153 -72 304 -57 154 -174 479 -220 613 -21 62 -50 173 -64
245 -50 251 -75 308 -170 387 -60 50 -188 113 -271 134 -85 22 -147 19 -224
-8z m-690 -847 c0 -6 -4 -7 -10 -4 -5 3 -10 11 -10 16 0 6 5 7 10 4 6 -3 10
-11 10 -16z"/>
</g>
</svg>
